<svg xmlns="http://www.w3.org/2000/svg" width="640" height="260">
  <path d="M0 0h640v260H0z" fill="none" />
  <g stroke="#fff" stroke-width="2">
    <path d="M25 50h590"/>
    <path fill="none" stroke-linecap="square" d="M605 44.226L615 50l-10 5.774"/>
  </g>
  <path stroke="#fff" stroke-width="2" d="M564 25v50"/>
  <g transform="translate(395 25)">
    <circle cx="20" cy="25" fill="hsl(79, 60%, 20%)" stroke="#fff" stroke-width="2" r="19"/>
    <text fill="#fff" font-family="Arial, Helvetica, sans-serif" font-size="18" dominant-baseline="middle" text-anchor="middle" transform="translate(20 25)">
      d
    </text>
  </g>
  <g transform="translate(245 25)">
    <circle cx="20" cy="25" fill="hsl(32, 60%, 20%)" stroke="#fff" stroke-width="2" r="19"/>
    <text fill="#fff" font-family="Arial, Helvetica, sans-serif" font-size="18" dominant-baseline="middle" text-anchor="middle" transform="translate(20 25)">
      c
    </text>
  </g>
  <g transform="translate(185 25)">
    <circle cx="20" cy="25" fill="hsl(44, 60%, 20%)" stroke="#fff" stroke-width="2" r="19"/>
    <text fill="#fff" font-family="Arial, Helvetica, sans-serif" font-size="18" dominant-baseline="middle" text-anchor="middle" transform="translate(20 25)">
      b
    </text>
  </g>
  <g transform="translate(65 25)">
    <circle cx="20" cy="25" fill="hsl(321, 60%, 20%)" stroke="#fff" stroke-width="2" r="19"/>
    <text fill="#fff" font-family="Arial, Helvetica, sans-serif" font-size="18" dominant-baseline="middle" text-anchor="middle" transform="translate(20 25)">
      a
    </text>
  </g>
  <g transform="translate(25 95)" fill="none">
    <rect y="10" width="590" height="48" stroke="#fff" stroke-width="2" rx="0"/>
    <text x="295" y="35" fill="#fff" font-family="Arial, Helvetica, sans-serif" font-size="24" dominant-baseline="middle" text-anchor="middle">
      debounceTime(20)
    </text>
  </g>
  <g>
    <g stroke="#fff" stroke-width="2">
      <path d="M25 210h590"/>
      <path fill="none" stroke-linecap="square" d="M605 204.226L615 210l-10 5.774"/>
    </g>
    <path stroke="#fff" stroke-width="2" d="M564 185v50"/>
    <g transform="translate(455 185)">
      <circle cx="20" cy="25" fill="hsl(79, 60%, 20%)" stroke="#fff" stroke-width="2" r="19"/>
      <text fill="#fff" font-family="Arial, Helvetica, sans-serif" font-size="18" dominant-baseline="middle" text-anchor="middle" transform="translate(20 25)">
        d
      </text>
    </g>
    <g transform="translate(335 185)">
      <circle cx="20" cy="25" fill="hsl(32, 60%, 20%)" stroke="#fff" stroke-width="2" r="19"/>
      <text fill="#fff" font-family="Arial, Helvetica, sans-serif" font-size="18" dominant-baseline="middle" text-anchor="middle" transform="translate(20 25)">
        c
      </text>
    </g>
    <g transform="translate(125 185)">
      <circle cx="20" cy="25" fill="hsl(321, 60%, 20%)" stroke="#fff" stroke-width="2" r="19"/>
      <text fill="#fff" font-family="Arial, Helvetica, sans-serif" font-size="18" dominant-baseline="middle" text-anchor="middle" transform="translate(20 25)">
        a
      </text>
    </g>
  </g>
</svg>