<svg xmlns="http://www.w3.org/2000/svg" fill="none" width="550" height="260">
  <path d="M0 0h550v260H0z"/>
  <g stroke="#fff" stroke-width="2">
    <path d="M25 50h500"/>
    <path fill="none" stroke-linecap="square" d="M515 44.226L525 50l-10 5.774"/>
  </g>
  <path stroke="#fff" stroke-width="2" d="M474 25v50"/>
  <g transform="translate(335 25)">
    <circle cx="20" cy="25" fill="#60eb7a" stroke="#fff" stroke-width="2" r="19"/>
    <text fill="#fff" font-family="Arial, Helvetica, sans-serif" font-size="18" dominant-baseline="middle" text-anchor="middle" transform="translate(20 25)">
      3
    </text>
  </g>
  <g transform="translate(215 25)">
    <circle cx="20" cy="25" fill="#f00cc6" stroke="#fff" stroke-width="2" r="19"/>
    <text fill="#fff" font-family="Arial, Helvetica, sans-serif" font-size="18" dominant-baseline="middle" text-anchor="middle" transform="translate(20 25)">
      2
    </text>
  </g>
  <g transform="translate(95 25)">
    <circle cx="20" cy="25" fill="#c7ebce" stroke="#fff" stroke-width="2" r="19"/>
    <text fill="#fff" font-family="Arial, Helvetica, sans-serif" font-size="18" dominant-baseline="middle" text-anchor="middle" transform="translate(20 25)">
      1
    </text>
  </g>
  <g transform="translate(25 95)">
    <rect y="10" width="500" height="48" stroke="#fff" stroke-width="2" rx="0"/>
    <text x="250" y="35" fill="#fff" font-family="Arial, Helvetica, sans-serif" font-size="24" dominant-baseline="middle" text-anchor="middle">
      map(x =&gt; 10 * x)
    </text>
  </g>
  <g>
    <g stroke="#fff" stroke-width="2">
      <path d="M25 210h500"/>
      <path fill="none" stroke-linecap="square" d="M515 204.226L525 210l-10 5.774"/>
    </g>
    <path stroke="#fff" stroke-width="2" d="M474 185v50"/>
    <g transform="translate(335 185)">
      <circle cx="20" cy="25" fill="#60eb7a" stroke="#fff" stroke-width="2" r="19"/>
      <text fill="#fff" font-family="Arial, Helvetica, sans-serif" font-size="18" dominant-baseline="middle" text-anchor="middle" transform="translate(20 25)">
        30
      </text>
    </g>
    <g transform="translate(215 185)">
      <circle cx="20" cy="25" fill="#f00cc6" stroke="#fff" stroke-width="2" r="19"/>
      <text fill="#fff" font-family="Arial, Helvetica, sans-serif" font-size="18" dominant-baseline="middle" text-anchor="middle" transform="translate(20 25)">
        20
      </text>
    </g>
    <g transform="translate(95 185)">
      <circle cx="20" cy="25" fill="#c7ebce" stroke="#fff" stroke-width="2" r="19"/>
      <text fill="#fff" font-family="Arial, Helvetica, sans-serif" font-size="18" dominant-baseline="middle" text-anchor="middle" transform="translate(20 25)">
        10
      </text>
    </g>
  </g>
</svg>