<svg xmlns="http://www.w3.org/2000/svg" width="580" height="330">
  <path d="M0 0h580v330H0z" fill="none" />
  <g stroke="#fff" stroke-width="2">
    <path d="M25 50h530"/>
    <path fill="none" stroke-linecap="square" d="M545 44.226 555 50l-10 5.774"/>
  </g>
  <path stroke="#fff" stroke-width="2" d="M504 25v50"/>
  <g transform="translate(455 25)">
    <circle cx="20" cy="25" fill="hsl(284, 60%, 20%)" stroke="#fff" stroke-width="2" r="19"/>
    <text fill="#fff" font-family="Arial, Helvetica, sans-serif" font-size="18" dominant-baseline="middle" text-anchor="middle" transform="translate(20 25)">r</text>
  </g>
  <g transform="translate(275 25)">
    <circle cx="20" cy="25" fill="hsl(284, 60%, 20%)" stroke="#fff" stroke-width="2" r="19"/>
    <text fill="#fff" font-family="Arial, Helvetica, sans-serif" font-size="18" dominant-baseline="middle" text-anchor="middle" transform="translate(20 25)">r</text>
  </g>
  <g>
    <g stroke="#fff" stroke-width="2">
      <path d="M25 120h200"/>
      <path fill="none" stroke-linecap="square" d="M215 114.226 225 120l-10 5.774"/>
    </g>
    <g stroke="#fff" stroke-width="2">
      <path d="m160 105 30 30M190 105l-30 30"/>
    </g>
    <g transform="translate(95 95)">
      <circle cx="20" cy="25" fill="hsl(206, 60%, 20%)" stroke="#fff" stroke-width="2" r="19"/>
      <text fill="#fff" font-family="Arial, Helvetica, sans-serif" font-size="18" dominant-baseline="middle" text-anchor="middle" transform="translate(20 25)">2</text>
    </g>
    <g transform="translate(35 95)">
      <circle cx="20" cy="25" fill="hsl(35, 60%, 20%)" stroke="#fff" stroke-width="2" r="19"/>
      <text fill="#fff" font-family="Arial, Helvetica, sans-serif" font-size="18" dominant-baseline="middle" text-anchor="middle" transform="translate(20 25)">1</text>
    </g>
  </g>
  <g transform="translate(25 165)" fill="none" >
    <rect y="10" width="530" height="48" stroke="#fff" stroke-width="2" rx="0"/>
    <text x="265" y="35" fill="#fff" font-family="Arial, Helvetica, sans-serif" font-size="24" dominant-baseline="middle" text-anchor="middle">retryWhen</text>
  </g>
  <g>
    <g stroke="#fff" stroke-width="2">
      <path d="M25 280h530"/>
      <path fill="none" stroke-linecap="square" d="M545 274.226 555 280l-10 5.774"/>
    </g>
    <path stroke="#fff" stroke-width="2" d="M504 255v50"/>
    <g transform="translate(455 255)">
      <circle cx="20" cy="25" fill="hsl(35, 60%, 20%)" stroke="#fff" stroke-width="2" r="19"/>
      <text fill="#fff" font-family="Arial, Helvetica, sans-serif" font-size="18" dominant-baseline="middle" text-anchor="middle" transform="translate(20 25)">1</text>
    </g>
    <g transform="translate(335 255)">
      <circle cx="20" cy="25" fill="hsl(206, 60%, 20%)" stroke="#fff" stroke-width="2" r="19"/>
      <text fill="#fff" font-family="Arial, Helvetica, sans-serif" font-size="18" dominant-baseline="middle" text-anchor="middle" transform="translate(20 25)">2</text>
    </g>
    <g transform="translate(275 255)">
      <circle cx="20" cy="25" fill="hsl(35, 60%, 20%)" stroke="#fff" stroke-width="2" r="19"/>
      <text fill="#fff" font-family="Arial, Helvetica, sans-serif" font-size="18" dominant-baseline="middle" text-anchor="middle" transform="translate(20 25)">1</text>
    </g>
    <g transform="translate(95 255)">
      <circle cx="20" cy="25" fill="hsl(206, 60%, 20%)" stroke="#fff" stroke-width="2" r="19"/>
      <text fill="#fff" font-family="Arial, Helvetica, sans-serif" font-size="18" dominant-baseline="middle" text-anchor="middle" transform="translate(20 25)">2</text>
    </g>
    <g transform="translate(35 255)">
      <circle cx="20" cy="25" fill="hsl(35, 60%, 20%)" stroke="#fff" stroke-width="2" r="19"/>
      <text fill="#fff" font-family="Arial, Helvetica, sans-serif" font-size="18" dominant-baseline="middle" text-anchor="middle" transform="translate(20 25)">1</text>
    </g>
  </g>
</svg>