<svg xmlns="http://www.w3.org/2000/svg" xmlns:xlink="http://www.w3.org/1999/xlink" xmlns:lucid="lucid" width="720" height="620">
  <g transform="translate(-340 -140)" lucid:page-tab-id="0_0">
    <path d="M600 620c0 66.27-53.73 120-120 120-66.27 0-120-53.73-120-120 0-66.27 53.73-120 120-120 66.27 0 120 53.73 120 120z" stroke="#fff" stroke-width="4" fill="#7ab648"/>
    <use xlink:href="#a" transform="translate(432.324 625.028)"/>
    <path d="M840 280c0 66.27-53.73 120-120 120-66.27 0-120-53.73-120-120 0-66.27 53.73-120 120-120 66.27 0 120 53.73 120 120z" stroke="#fff" stroke-width="4" fill="#99d2f2"/>
    <use xlink:href="#b" transform="translate(642.827 285.028)"/>
    <path d="M1040 620c0 66.27-53.73 120-120 120-66.27 0-120-53.73-120-120 0-66.27 53.73-120 120-120 66.27 0 120 53.73 120 120z" stroke="#fff" stroke-width="4" fill="#ff8f80"/>
    <use xlink:href="#c" transform="translate(868.512 625.028)"/>
    <path d="M480 496V286c0-3.3 2.7-6 6-6h89.26" stroke="#fff" stroke-width="4" fill="none"/>
    <path d="m482 498.04-2-.04-2 .02v-2.07h4" fill="#fff"/>
    <path d="m591.53 280-14.27 4.64v-9.28z" stroke="#fff" stroke-width="4" fill="#fff"/>
    <path d="M844 280h70c3.3 0 6 2.7 6 6v189.26" stroke="#fff" stroke-width="4" fill="none"/>
    <path d="M844.05 282h-2.1l.05-2-.02-2h2.07" fill="#fff"/>
    <path d="m920 491.53-4.64-14.27h9.28z" stroke="#fff" stroke-width="4" fill="#fff"/>
    <path d="M796 620H624.74" stroke="#fff" stroke-width="4" fill="none"/>
    <path d="m798 620 .02 2h-2.07v-4h2.1" fill="#fff"/>
    <path d="m608.47 620 14.27-4.64v9.28z" stroke="#fff" stroke-width="4" fill="#fff"/>
    <defs>
      <path fill="#fff" d="M147 0H94L2-248h55l64 206c17-72 42-137 63-206h54" id="d"/>
      <path fill="#fff" d="M25-224v-37h50v37H25zM25 0v-190h50V0H25" id="e"/>
      <path fill="#fff" d="M185-48c-13 30-37 53-82 52C43 2 14-33 14-96s30-98 90-98c62 0 83 45 84 108H66c0 31 8 55 39 56 18 0 30-7 34-22zm-45-69c5-46-57-63-70-21-2 6-4 13-4 21h74" id="f"/>
      <path fill="#fff" d="M231 0h-52l-39-155L100 0H48L-1-190h46L77-45c9-52 24-97 36-145h53l37 145 32-145h46" id="g"/>
      <path fill="#fff" d="m199 0-22-63H83L61 0H9l90-248h61L250 0h-51zm-33-102-36-108c-10 38-24 72-36 108h72" id="h"/>
      <path fill="#fff" d="M190-63c-7 42-38 67-86 67-59 0-84-38-90-98-12-110 154-137 174-36l-49 2c-2-19-15-32-35-32-30 0-35 28-38 64-6 74 65 87 74 30" id="i"/>
      <path fill="#fff" d="M115-3C79 11 28 4 28-45v-112H4v-33h27l15-45h31v45h36v33H77v99c-1 23 16 31 38 25v30" id="j"/>
      <path fill="#fff" d="M110-194c64 0 96 36 96 99 0 64-35 99-97 99-61 0-95-36-95-99 0-62 34-99 96-99zm-1 164c35 0 45-28 45-65 0-40-10-65-43-65-34 0-45 26-45 65 0 36 10 65 43 65" id="k"/>
      <path fill="#fff" d="M135-194c87-1 58 113 63 194h-50c-7-57 23-157-34-157-59 0-34 97-39 157H25l-1-190h47c2 12-1 28 3 38 12-26 28-41 61-42" id="l"/>
      <path fill="#fff" d="M137-138c1-29-70-34-71-4 15 46 118 7 119 86 1 83-164 76-172 9l43-7c4 19 20 25 44 25 33 8 57-30 24-41C81-84 22-81 20-136c-2-80 154-74 161-7" id="m"/>
      <path fill="#fff" d="M169-182c-1-43-94-46-97-3 18 66 151 10 154 114 3 95-165 93-204 36-6-8-10-19-12-30l50-8c3 46 112 56 116 5-17-69-150-10-154-114-4-87 153-88 188-35 5 8 8 18 10 28" id="n"/>
      <path fill="#fff" d="M133-34C117-15 103 5 69 4 32 3 11-16 11-54c-1-60 55-63 116-61 1-26-3-47-28-47-18 1-26 9-28 27l-52-2c7-38 36-58 82-57s74 22 75 68l1 82c-1 14 12 18 25 15v27c-30 8-71 5-69-32zm-48 3c29 0 43-24 42-57-32 0-66-3-65 30 0 17 8 27 23 27" id="o"/>
      <g id="a">
        <use transform="scale(.11728)" xlink:href="#d"/>
        <use transform="matrix(.11728 0 0 .11728 27.327 0)" xlink:href="#e"/>
        <use transform="matrix(.11728 0 0 .11728 39.056 0)" xlink:href="#f"/>
        <use transform="matrix(.11728 0 0 .11728 62.512 0)" xlink:href="#g"/>
      </g>
      <g id="b">
        <use transform="scale(.11728)" xlink:href="#h"/>
        <use transform="matrix(.11728 0 0 .11728 30.377 0)" xlink:href="#i"/>
        <use transform="matrix(.11728 0 0 .11728 53.833 0)" xlink:href="#j"/>
        <use transform="matrix(.11728 0 0 .11728 67.79 0)" xlink:href="#e"/>
        <use transform="matrix(.11728 0 0 .11728 79.519 0)" xlink:href="#k"/>
        <use transform="matrix(.11728 0 0 .11728 105.204 0)" xlink:href="#l"/>
        <use transform="matrix(.11728 0 0 .11728 130.889 0)" xlink:href="#m"/>
      </g>
      <g id="c">
        <use transform="scale(.11728)" xlink:href="#n"/>
        <use transform="matrix(.11728 0 0 .11728 28.148 0)" xlink:href="#j"/>
        <use transform="matrix(.11728 0 0 .11728 42.105 0)" xlink:href="#o"/>
        <use transform="matrix(.11728 0 0 .11728 65.562 0)" xlink:href="#j"/>
        <use transform="matrix(.11728 0 0 .11728 79.519 0)" xlink:href="#f"/>
      </g>
    </defs>
  </g>
</svg>